<?xml version="1.0" encoding="UTF-8" standalone="no"?>
<!-- Created with Inkscape (http://www.inkscape.org/) -->

<svg
   width="81.548103mm"
   height="82.541855mm"
   viewBox="0 0 81.548103 82.541855"
   version="1.1"
   id="svg5"
   xml:space="preserve"
   inkscape:version="1.2.2 (732a01da63, 2022-12-09)"
   sodipodi:docname="MWA_LOGO.svg"
   xmlns:inkscape="http://www.inkscape.org/namespaces/inkscape"
   xmlns:sodipodi="http://sodipodi.sourceforge.net/DTD/sodipodi-0.dtd"
   xmlns="http://www.w3.org/2000/svg"
   xmlns:svg="http://www.w3.org/2000/svg"><sodipodi:namedview
     id="namedview7"
     pagecolor="#ffffff"
     bordercolor="#666666"
     borderopacity="1.0"
     inkscape:showpageshadow="2"
     inkscape:pageopacity="0.0"
     inkscape:pagecheckerboard="0"
     inkscape:deskcolor="#d1d1d1"
     inkscape:document-units="mm"
     showgrid="true"
     inkscape:zoom="1.6819304"
     inkscape:cx="400.13546"
     inkscape:cy="131.99119"
     inkscape:window-width="1920"
     inkscape:window-height="1009"
     inkscape:window-x="-8"
     inkscape:window-y="-8"
     inkscape:window-maximized="1"
     inkscape:current-layer="layer1" /><defs
     id="defs2"><clipPath
       clipPathUnits="userSpaceOnUse"
       id="clipPath11126"><path
         id="path11128"
         style="fill:#ff0000;fill-opacity:1;fill-rule:nonzero;stroke:none;stroke-width:0.264583"
         d="m 183.65464,41.268378 v 72.774892 c 1.03551,-0.0817 2.07569,-0.0844 3.11609,-0.0786 0.70255,-1.04472 2.13953,-1.80096 4.31911,-1.65985 0.5348,0.0346 0.22099,0.023 0.94155,0.0119 1.08819,0.0368 2.18132,-0.055 3.26388,0.0734 0.26541,-0.01 0.53157,-0.009 0.79634,-0.03 0.80036,-0.0638 0.70983,-0.16799 1.65519,-0.16898 1.41236,-0.002 2.32404,0.32078 3.6866,0.63097 -0.17957,0.0417 -0.68312,0.0108 -0.53847,0.12506 0.15743,0.12438 0.39675,-0.0998 0.59635,-0.0796 0.6904,0.0699 1.36613,0.24979 2.05362,0.34313 -0.25292,-0.0927 -0.41082,-0.15643 -0.31058,-0.13643 0.15115,0.0302 0.58921,0.17219 0.43615,0.154 -0.042,-0.005 -0.0837,-0.0124 -0.12557,-0.0181 0.22984,0.0843 0.53784,0.19283 0.81132,0.28784 0.13268,0.0772 0.25763,0.17168 0.38964,0.25063 0.0172,-0.0237 0.0527,-0.0709 0.0687,-0.093 0.63666,-0.87824 0.37397,-0.54704 1.45831,-1.64331 -0.68362,-0.0965 -0.28818,0.38827 -1.0666,-1.40043 0.23217,-0.32133 0.44899,-0.65545 0.66766,-0.98805 -0.29572,-0.0736 -1.06638,-0.30386 -3.175,-1.00511 -0.33364,-0.11095 -0.63031,-0.31855 -0.96532,-0.4253 -1.45594,-0.46393 -2.98068,-0.78085 -4.51445,-0.71675 h -5.3e-4 c -4.4495,0.18606 -4.44899,-4.30116 0,-4.49895 1.91082,-0.0849 3.78696,0.57499 5.60741,1.06298 0.40036,0.10734 0.81111,0.18318 1.20303,0.31678 0.14026,-1.67922 0.76762,-2.93375 2.36574,-2.68717 0.26846,0.0414 0.52832,0.12114 0.78549,0.21187 0.87019,-0.0417 1.74373,0.0126 2.61431,-0.008 1.86835,-0.0424 -0.80614,-0.0993 1.81229,-0.007 1.90967,-0.0615 -0.68688,-10e-4 2.95899,0.10439 0.0246,7.9e-4 0.0493,2.7e-4 0.0739,10e-4 -0.0955,-0.18998 -0.19159,-0.37968 -0.28732,-0.56947 -0.0334,-0.0995 -0.12098,-0.30238 -0.16123,-0.41496 -0.20096,-0.23586 -0.38881,-0.48 -0.53072,-0.75396 -0.50796,-0.980675 0.30247,-1.042273 -0.0744,-1.009242 -0.10446,-0.436851 -0.21059,-0.97989 -0.11989,-1.433505 0.002,-0.0117 0.006,-0.02299 0.009,-0.03462 0.002,-0.253609 0.0173,-0.508612 0.0191,-0.762228 8e-4,-0.115565 -0.004,-0.218011 -0.008,-0.292486 -0.10816,-0.172522 -0.20972,-0.348067 -0.29455,-0.531752 -0.0184,-0.03978 -0.0315,-0.08099 -0.0424,-0.122989 -0.209,-0.06079 -0.43464,-0.361907 -0.68574,-1.011309 -0.0712,-0.184152 -0.21869,-0.355041 -0.21395,-0.552421 0.009,-0.380047 0.87258,-5.717045 0.46458,1.041281 0.14791,0.138814 0.26716,0.323083 0.41961,0.454753 -0.0114,-0.06173 -0.017,-0.125333 -0.0217,-0.189137 -0.0414,-0.05235 -0.0764,-0.103193 -0.091,-0.143661 -0.037,-0.102108 -0.007,-0.427805 0.0269,-0.324528 0.0484,0.148934 0.0523,0.309759 0.0641,0.468189 0.0753,0.09508 0.16314,0.187621 0.21497,0.251147 0.83857,-0.296822 1.41783,-4.323902 2.32957,-4.364074 0.24739,-0.0109 0.51917,0.271986 0.82734,1.002522 0.0296,0.07008 0.0677,0.138091 0.10646,0.20619 0.10291,0.101301 0.19766,0.20076 0.25425,0.281635 0.30572,0.43701 0.50309,0.943743 0.69659,1.440739 0.0673,0.172966 0.256,0.605634 0.0785,0.550873 -0.30086,-0.09291 -0.79255,-0.704617 -0.94929,-0.864031 -0.002,0.01929 -0.006,0.03895 -0.008,0.0584 0.23847,0.437605 0.72161,0.693375 1.08004,1.041794 0.11961,0.422929 0.26385,0.839608 0.35915,1.268659 0.0221,0.09951 -0.0119,0.203488 -0.009,0.305408 0.006,0.403535 0.0569,0.808038 0.0248,1.211294 -0.008,0.02938 -0.0159,0.05854 -0.0238,0.08785 0.0495,0.145037 0.12866,0.290954 0.0563,0.42323 0.007,0.08082 0.001,0.0071 0.007,0.07803 0.37611,0.374047 0.42786,0.462259 0.46043,0.797367 0.0252,0.02545 0.1138,0.184253 0.35502,0.656292 0.25485,0.49873 0.41528,1.05891 0.45424,1.62109 1.06131,-0.008 0.46071,0.0346 0.004,0.0605 5e-5,10e-4 5.3e-4,0.002 5.3e-4,0.004 0.14377,-0.007 0.20754,-0.0109 0.89658,-0.0429 1.49263,0.0609 2.2693,0.11985 3.75636,0.0729 0.29971,-0.009 0.59665,-0.10568 0.89556,-0.0816 0.65073,0.052 1.2894,0.20639 1.93424,0.30799 1.90704,0.30046 0.95764,0.14113 2.43707,0.39842 0.14859,-0.0293 0.29761,-0.0563 0.44751,-0.078 0.16303,-0.0237 0.32878,0.0194 0.49351,0.0191 0.489,-5.3e-4 0.97403,0.002 1.46038,0.008 0.27864,-0.0791 0.3868,-0.16772 0.87075,-0.0103 0.11392,-0.006 0.22768,-0.012 0.34158,-0.0181 0.0652,0.003 0.13065,0.0103 0.19585,0.008 0.45771,-0.0126 0.90722,-0.0896 1.36788,-0.0718 0.17658,0.007 0.35036,0.0461 0.52555,0.0692 0.28807,0.0671 0.58538,0.10383 0.86454,0.20153 0.10324,0.0361 -0.22158,-0.038 -0.32814,-0.0134 -0.0286,0.007 0.005,0.0709 0.0331,0.0816 0.0812,0.0319 0.17212,0.0315 0.25942,0.0326 0.5289,0.006 0.40373,-0.0653 0.95808,-0.46612 0.54247,-0.24768 0.88443,-0.91366 1.47174,-1.01699 0.23405,-0.0412 0.45932,-0.0592 0.6749,-0.0563 0.93414,0.0126 1.6901,0.43096 2.22622,1.18598 0.20061,0.28252 0.35819,0.59333 0.53743,0.88986 0.12325,0.49512 0.29054,0.98117 0.37001,1.48518 0.0101,0.0641 0.006,0.12866 -0.002,0.19327 0.75922,0.10631 1.41817,0.54232 1.76423,1.15342 0.23243,0.007 0.46465,0.0113 0.69712,0.01 0.44443,-0.003 0.88799,-0.049 1.33222,-0.062 0.9285,-0.0271 1.85892,0.002 2.78587,-0.0584 0.75574,-0.0491 1.50422,-0.17963 2.25619,-0.26923 0.7823,-0.0928 1.56893,-0.15552 2.34767,-0.27337 0.0861,-0.0875 0.18333,-0.14706 0.3023,-0.14314 0.1214,0.004 0.2422,0.0152 0.36277,0.0289 0.36378,-0.0723 0.72395,-0.16127 1.07745,-0.27182 0.0816,-0.0817 0.13127,-0.12673 0.22273,-0.22014 0.053,-0.0542 -0.0519,0.16718 -0.12402,0.19068 -0.0326,0.0106 -0.0659,0.0192 -0.0987,0.0295 -0.14467,0.14483 -0.2791,0.27818 -0.3948,0.39016 1.13331,0.25582 2.24509,0.74457 3.39514,0.66456 0.0294,-0.002 0.0505,-0.009 0.0682,-0.0176 -0.52186,-1.07768 -1.61261,-1.89714 -0.57257,-1.06816 0.15567,0.33518 0.79491,0.95612 0.57257,1.06816 0.16083,0.33211 0.26967,0.6881 0.24288,1.02887 -0.14947,1.90162 -1.23912,2.00081 -2.38952,2.18333 -0.75296,0.74543 -1.52645,1.47157 -2.24172,2.25309 -0.79638,0.87016 -1.31881,1.45203 -1.73478,1.9358 0.11115,-0.0552 0.22361,-0.10822 0.33331,-0.16589 1.29612,-0.6584 2.42382,-1.27365 3.6189,-1.01801 -0.15526,-1.04719 -0.0203,-1.47448 0.26924,-1.45625 0.50779,0.032 1.4652,1.39824 2.08308,3.00964 0.0461,-0.0395 0.10365,-0.0891 0.14004,-0.12041 1.05668,-0.77152 2.45267,-0.32069 3.65042,-0.4005 1.31125,0.2906 1.36753,0.22903 2.52801,0.74415 0.19645,0.0872 0.41309,0.15524 0.58911,0.27595 V 41.268378 Z m 32.26935,51.026862 c -0.0247,-0.01696 0.15779,0.134019 0.3638,0.31419 2.6e-4,-0.01442 5.3e-4,-0.02421 0.001,-0.03876 -0.24306,-0.183113 -0.34821,-0.264023 -0.36483,-0.275434 z m -2.79001,3.684529 c 0.004,0.02275 0.01,0.04541 0.0155,0.0677 0.0311,0.009 0.0621,0.01376 0.0925,0.01241 -0.0383,-0.02307 -0.0738,-0.05054 -0.10801,-0.0801 z m 0.36793,0.748273 c 0.009,0.06328 0.0415,0.276199 0.092,0.594797 0.0394,-0.139703 0.0743,-0.261271 0.092,-0.316778 -0.062,-0.09232 -0.12473,-0.184327 -0.18397,-0.278019 z m 0.18397,0.278019 c 0.002,0.0024 0.003,0.0044 0.005,0.0067 0.009,-0.0417 0.006,-0.04125 -0.005,-0.0067 z m 0.005,0.0072 c -8e-4,0.0043 -0.001,0.0037 -0.002,0.0098 -0.0234,0.108054 -0.0569,0.213575 -0.0915,0.318845 -0.002,-0.01056 -0.002,-0.0089 -0.003,-0.01913 -0.0284,0.100825 -0.0544,0.191212 -0.078,0.273368 0.0251,-0.08492 0.053,-0.168918 0.0806,-0.253215 0.0141,0.08884 0.006,0.049 0.0253,0.163815 0.29083,0.315695 1.00394,1.355788 0.8723,0.947229 -0.16899,-0.524497 -0.4932,-0.978784 -0.80358,-1.440738 z m -0.1757,0.58601 c -0.009,0.031 -0.0226,0.08086 -0.0295,0.10387 -7.9e-4,0.0069 -0.001,0.01032 -0.002,0.02066 0.01,-0.04163 0.0194,-0.08343 0.0315,-0.124539 z m 4.55114,0.461986 c -0.002,-7.93e-4 -0.004,-5.29e-4 -0.004,0.0026 -0.0106,0.06581 0.006,0.133014 0.0284,0.200504 0.002,-0.05576 -0.001,-0.111895 -0.006,-0.167431 -7.9e-4,-0.01 -0.0122,-0.03135 -0.0186,-0.03566 z m 0.0248,0.217043 c -0.0302,0.111972 -0.0614,0.223489 -0.092,0.335381 0.005,0.0049 0.0106,0.01021 0.0155,0.01498 0.027,-0.107606 0.0596,-0.227986 0.0729,-0.294039 0.004,-0.01852 0.002,-0.0375 0.004,-0.05633 z m -0.15968,0.604097 c -0.0121,0.05169 -0.0243,0.103442 -0.0346,0.155546 -0.0216,0.109479 0.008,0.01053 0.0501,-0.141076 -0.005,-0.0049 -0.0104,-0.0096 -0.0155,-0.01447 z m 0.47852,0.51108 c -1e-4,0.0016 0.003,0.0082 0.0103,0.02066 0.31715,0.564689 0.24055,0.343056 0.2036,0.21549 0.002,0.02011 0.003,0.03534 0.005,0.05736 -0.0609,-0.07957 -0.21784,-0.305245 -0.21859,-0.293521 z m -4.10362,1.727033 c 0.10063,0.2102 0.16119,0.44504 0.30334,0.6289 0.0403,0.0522 0.11669,0.12409 0.19843,0.19534 0.004,-0.0541 0.0101,-0.09 0.016,-0.0537 0.004,0.024 0.005,0.048 0.007,0.0723 0.005,0.004 0.01,0.008 0.015,0.0119 0.0568,10e-4 0.11368,0.002 0.17053,0.003 -0.21172,-0.30288 -0.46456,-0.5782 -0.71003,-0.85783 z m 0.52451,0.84284 c -0.008,-0.007 -0.0151,-0.012 -0.0228,-0.0186 -7.9e-4,0.01 6e-5,0.0192 -5.3e-4,0.03 0.008,1.7e-4 0.0155,2.5e-4 0.0233,5.3e-4 -1.5e-4,-0.004 2.1e-4,-0.008 0,-0.0119 z m -9.13587,2.50683 c 0.006,0.23988 0.007,0.36631 0.0124,0.58342 0.06,0.0266 0.12035,0.0525 0.18035,0.0791 -0.0632,-0.22121 -0.12449,-0.44312 -0.19275,-0.66249 z m 31.83991,0.11523 c -0.0261,-0.008 -0.0321,0.26882 -0.0506,0.37052 l 0.061,0.22531 c 0.0146,-0.26318 0.023,-0.51141 0.003,-0.57412 -0.005,-0.014 -0.009,-0.0206 -0.0129,-0.0217 z m -0.017,0.64028 c -0.006,-0.003 -0.009,-0.002 -0.005,0.003 0.008,0.0125 0.0193,0.0232 0.0284,0.0351 5.3e-4,-0.009 5.3e-4,-0.0161 0.001,-0.0248 -0.009,-0.005 -0.0183,-0.0108 -0.0243,-0.0134 z m -31.78152,1.16737 c 0.0725,3.82035 -0.0289,2.37158 0.30954,0.0207 -0.10322,-0.005 -0.2063,-0.0134 -0.30954,-0.0207 z m 38.34081,3.68143 c 0.0317,0.0932 0.10783,0.31677 0.12867,0.37723 0.11971,-2.6e-4 0.23945,-0.002 0.35915,0.001 0.009,2.1e-4 0.0186,0.002 0.0279,0.002 0.16559,0.29516 0.1448,0.70824 0.0517,1.14825 -0.006,0.11686 -0.014,0.23921 -0.0305,0.38964 0.60227,0.92457 0.66046,2.01891 -1.75752,2.92076 -1.51297,0.5643 -2.31815,0.42682 -2.72128,-0.0315 -1.15535,-0.0759 -2.31415,-0.0122 -3.47162,-0.0362 -0.45377,0.0408 -0.9068,0.0323 -1.36064,0.0413 -0.006,0.002 -0.0124,0.003 -0.0186,0.005 -0.0496,0.011 -0.15096,0.0577 -0.15296,0.007 -1.5e-4,-0.003 -2.2e-4,-0.006 -5.3e-4,-0.009 -0.0205,7.9e-4 -0.041,2.6e-4 -0.0615,10e-4 0.005,-0.34222 0.005,-0.68449 0.007,-1.02682 -0.0379,0.0406 -0.0778,0.0792 -0.12248,0.11473 -0.96272,0.76642 -1.61048,0.75608 -2.25981,0.49299 -1.03738,0.006 -1.5722,0.01 -1.93114,0.0212 -0.60209,0.35282 -0.94237,0.5425 -1.73168,0.69246 -0.0819,0.0644 -0.16701,0.12451 -0.262,0.17105 -0.52226,0.2559 -1.16226,0.21823 -1.73891,0.14263 -0.42742,-0.0561 -0.81985,-0.29198 -1.18184,-0.52607 -0.17476,-0.11301 -0.33267,-0.23018 -0.47749,-0.35192 -0.0888,-0.005 -0.1778,-0.006 -0.26665,-0.009 -1,0.13698 -1.92767,0.17285 -3.01687,0.13953 -0.65773,-0.0201 -1.31335,-0.0823 -1.96939,-0.13591 -0.0553,0.0415 1.86841,0.11956 -0.40618,0.1726 -0.20316,0.10092 -0.48106,0.11013 -1.05317,0.10232 -0.70536,-0.01 -0.48756,0.0639 -0.75757,-0.0341 -0.0333,-0.005 -0.1052,-0.003 -0.13746,-0.008 -0.21164,0.061 -0.44388,0.13254 -0.72657,0.2372 -0.30346,-0.12433 -0.61427,-0.2321 -0.91674,-0.35864 -0.0446,-0.006 -0.0891,-0.0153 -0.13384,-0.0207 -3e-5,-0.0131 -5.3e-4,-0.0262 -5.3e-4,-0.0393 -0.0779,-0.0346 -0.15594,-0.0689 -0.23203,-0.10749 -0.12344,-0.0626 -0.19768,-0.1943 -0.30592,-0.2806 -0.1896,-0.1511 -0.3847,-0.29613 -0.58653,-0.43047 -0.20051,-0.13347 -0.44012,-0.21142 -0.6196,-0.37207 -0.63045,-0.56432 -0.62069,-0.64953 -0.89917,-1.24695 0.12487,0.025 0.0288,-0.095 -0.0971,-0.2372 -0.32003,0.10581 -0.53672,0.0675 -0.78807,-0.0145 -0.0275,0.015 -0.063,0.0346 -0.0858,0.0476 -0.2565,0.14447 -0.42627,0.24039 -0.58601,0.32866 0.0628,0.70842 -0.10513,1.13716 -0.51056,1.97456 -0.0131,0.0212 -0.0247,0.0433 -0.0377,0.0646 0.25879,0.007 0.51771,0.0164 0.77618,0.0305 0.01,5.3e-4 2.9583,0.328 3.16932,0.3514 2.25142,0.25016 3.60258,1.22319 4.11809,2.33629 0.63683,0.0384 1.27398,0.0615 1.91151,0.10852 4.02021,-0.0259 -1.73212,-0.0173 2.04846,0.0682 0.50842,0.0115 0.81996,0.0134 1.08107,0.0124 0.18485,-0.10149 0.36975,-0.20286 0.55449,-0.30438 0.51652,-0.28388 1.02006,-0.59213 1.54926,-0.85162 0.13671,-0.067 0.29177,-0.0882 0.43976,-0.12403 0.72357,-0.17509 0.76148,-0.22035 1.2883,-0.20515 0.88898,-0.0114 1.78021,0.0289 2.66288,0.1235 0.33415,-0.008 0.66899,-0.002 1.00253,-0.0243 1.02216,-0.0668 1.98955,-0.30452 3.0272,-0.21291 0.33971,0.03 0.66309,0.16157 0.99839,0.22376 0.67339,0.12498 1.35117,0.22488 2.02675,0.33744 0.64702,0.094 1.29504,0.1809 1.94097,0.28216 0.3283,0.0515 0.65136,0.13711 0.98133,0.17621 0.47725,0.0565 0.95997,0.0573 1.43764,0.11008 0.37005,0.0409 0.73427,0.12533 1.10381,0.17053 0.3915,0.0479 0.83088,0.0963 1.28778,0.14417 0.49561,-1.03221 0.33156,-0.85565 0.13177,-0.55758 0.20535,-0.32786 0.58934,-0.95011 1.36684,-2.23553 2.10846,-2.34336 1.95593,-2.14019 3.5848,-4.21266 -0.24611,0.0174 -0.4923,0.0331 -0.73794,0.0563 -1.04931,0.0993 -2.08969,0.29524 -3.14193,0.35605 -0.41858,0.0242 -0.83465,-0.0854 -1.25367,-0.0987 -0.0983,-0.17508 -0.26331,-0.30758 -0.51573,-0.37982 z m 0.56741,1.52858 c 0.0171,-0.33494 -0.009,-0.51101 -0.11989,-0.25579 -0.20157,-0.56229 -0.25261,-0.7033 -0.31885,-0.89556 -0.37677,7.9e-4 -0.75386,0.0112 -1.13068,0.0191 0.10839,0.0489 0.21965,0.10523 0.33745,0.17518 0.32662,0.33386 0.81309,0.78072 1.15497,1.27951 0.0296,-0.1085 0.0544,-0.21575 0.077,-0.32247 z m -32.95251,0.14211 c 0.0248,0.12307 0.047,0.24178 0.063,0.34934 0.18989,0.0111 0.37684,0.002 0.55759,-0.10956 0.016,-0.01 0.031,-0.0258 0.0465,-0.0387 -0.18189,-0.0634 -0.38856,-0.14058 -0.66714,-0.20103 z m -5.36764,0.27544 c -0.10392,0.11824 -0.18839,0.24321 -0.20308,0.39584 -0.0348,0.36194 0.0722,1.14423 0.19275,1.56528 0.16881,-0.25735 0.22599,-0.34589 0.30127,-0.46199 0.0256,-0.47831 -0.0301,-0.96561 -0.0848,-1.45262 -0.0767,-0.0206 -0.14596,-0.0362 -0.20619,-0.0465 z m 46.37082,1.78594 c -0.11761,-0.0197 -0.27503,0.41994 -0.28991,0.61391 -0.0676,0.88435 -0.50513,2.00205 0.0904,2.65927 0.006,0.007 0.0132,0.0132 0.0196,0.0202 0.22386,-0.0322 0.44785,-0.0661 0.6718,-0.0935 0.35639,-0.0794 0.72098,-0.12975 1.07693,-0.21032 -0.46054,-1.00935 -0.93754,-2.00965 -1.52135,-2.95073 -0.0147,-0.0236 -0.0307,-0.0359 -0.0475,-0.0388 z m -34.7214,1.00407 c -0.0284,2.6e-4 -0.0506,7.9e-4 -0.0796,10e-4 -0.007,0.002 -0.0144,0.004 -0.0217,0.006 0.0301,0.002 0.0605,0.006 0.0894,0.004 0.004,-0.004 0.008,-0.008 0.0119,-0.0109 z m 44.76626,0.57051 c -0.0873,0.0397 -0.44796,0.65766 -0.66559,0.97307 0.0456,0.0973 0.0877,0.19675 0.12867,0.29713 0.2216,-0.38033 0.44232,-0.76007 0.54519,-1.18339 0.0121,-0.0498 0.0137,-0.0771 0.006,-0.0858 -0.003,-0.004 -0.008,-0.004 -0.0139,-10e-4 z m -0.80098,1.61695 c -0.004,0.0494 -0.0133,0.1002 -0.0134,0.14883 0.0212,-0.041 0.0455,-0.0808 0.0677,-0.12144 -0.0173,-0.0115 -0.0359,-0.0202 -0.0543,-0.0274 z m -0.79944,0.46147 c -0.0143,7.9e-4 -0.0488,0.0465 -0.11937,0.11989 0.0115,0.10154 -0.0613,0.17703 0.14935,-0.0481 -0.0139,-0.0492 -0.0187,-0.0724 -0.03,-0.0718 z" /></clipPath></defs><g
     inkscape:label="Layer 1"
     inkscape:groupmode="layer"
     id="layer1"
     transform="translate(-69.972986,-30.144929)"><text
       xml:space="preserve"
       style="font-weight:bold;font-size:28.707px;line-height:0.1;font-family:sans-serif;-inkscape-font-specification:'sans-serif Bold';stroke-width:0.149515"
       x="77.763641"
       y="111.1137"
       id="text1173"
       inkscape:export-filename="text1173.svg"
       inkscape:export-xdpi="186"
       inkscape:export-ydpi="186"><tspan
         sodipodi:role="line"
         id="tspan1171"
         style="stroke-width:0.149515"
         x="77.763641"
         y="111.1137">MWA</tspan></text><g
       id="g11104"><path
         style="fill:#000000;stroke:#000000;stroke-width:1.3;stroke-dasharray:none;stroke-opacity:1"
         d="m 183.65448,119.58498 v -2.11667 h 0.35217 c 0.19369,0 0.51402,0.30243 0.71184,0.67205 l 0.35967,0.67206 0.4119,-0.67886 c 0.22655,-0.37337 0.59083,-0.64483 0.80952,-0.60325 l 0.39761,0.0756 0.0794,1.67409 0.0794,1.67409 -0.30779,0.37086 c -0.44406,0.53506 -0.77637,0.21025 -0.78104,-0.76341 l -0.004,-0.84428 -0.23383,0.36928 c -0.12861,0.20311 -0.42444,0.29614 -0.65741,0.20675 l -0.42358,-0.16255 v 0.78545 0.78545 h -0.39687 -0.39688 z m 0.45131,-0.0662 c -0.0631,-0.32742 -0.11466,-0.0595 -0.11466,0.59532 0,0.65484 0.0516,0.92273 0.11466,0.59531 0.0631,-0.32742 0.0631,-0.8632 0,-1.19063 z m 4.31399,1.78931 c -0.42515,-0.51227 -0.16895,-1.14468 0.58665,-1.44816 l 0.60118,-0.24146 -0.59531,-0.0168 -0.59532,-0.0168 v -0.39688 -0.39687 h 0.89774 0.89773 l 0.1606,0.41851 c 0.0883,0.23019 0.1606,0.81161 0.1606,1.29206 v 0.87355 l -0.59531,0.15953 c -0.9019,0.2417 -1.16202,0.20286 -1.51856,-0.22674 z m 1.05554,0.0249 c 0,-0.0572 -0.18478,-0.17489 -0.41062,-0.26156 -0.23546,-0.0904 -0.34166,-0.046 -0.24897,0.10399 0.15538,0.25141 0.65959,0.37186 0.65959,0.15757 z m 0.0362,-1.16278 c -0.19088,-0.0636 -0.47286,0.0101 -0.62661,0.16386 l -0.27954,0.27955 0.6266,-0.16386 c 0.35777,-0.0936 0.47771,-0.2135 0.27955,-0.27955 z m 6.7296,1.11557 c -0.49204,-0.49203 -0.54781,-1.72761 -0.0983,-2.17714 0.17462,-0.17463 0.64861,-0.3175 1.05329,-0.3175 h 0.7358 l 0.11171,0.59531 c 0.20793,1.10808 0.14016,1.90106 -0.17985,2.10447 -0.5127,0.32587 -1.17545,0.24209 -1.62268,-0.20514 z m 1.10007,-1.06699 c -0.0879,-0.0879 -0.31613,-0.0973 -0.50712,-0.0209 l -0.34727,0.13896 0.50712,0.0209 c 0.27892,0.0115 0.43519,-0.0511 0.34727,-0.13896 z m -0.32522,-0.6339 -0.52917,-0.22739 0.50712,-0.0186 c 0.27891,-0.0102 0.43288,-0.0928 0.34214,-0.18358 -0.0907,-0.0907 -0.35625,-0.0916 -0.59003,-0.002 -0.52293,0.20067 -0.26217,0.70293 0.3517,0.67742 l 0.44741,-0.0186 z m 12.45432,1.70089 c -0.47157,-0.47156 -0.55002,-2.10712 -0.15136,-3.15565 l 0.26441,-0.69546 0.83338,0.0829 c 0.83767,0.0833 1.57104,0.80974 1.19609,1.1847 -0.11061,0.11061 -0.43867,0.0528 -0.72901,-0.12857 -0.29034,-0.18132 -0.64212,-0.25908 -0.78172,-0.1728 -0.39855,0.24632 -0.29666,1.87737 0.13993,2.2397 l 0.39374,0.32678 0.16373,-0.42667 c 0.23074,-0.60131 0.90086,-0.532 0.90086,0.0932 0,0.95436 -1.49156,1.39036 -2.23005,0.65187 z m 0.0241,-2.03162 c -0.0734,-0.1819 -0.13346,-0.0331 -0.13346,0.33073 0,0.3638 0.0601,0.51263 0.13346,0.33073 0.0734,-0.1819 0.0734,-0.47956 0,-0.66146 z m 9.26242,2.1161 -0.48039,-0.35127 0.0854,-1.04778 0.0854,-1.04778 0.7436,-0.0853 c 0.91401,-0.10481 1.55732,0.38681 1.45198,1.1096 l -0.0789,0.54147 -0.66146,0.18291 -0.66146,0.18291 0.61736,0.0264 0.61736,0.0264 -0.10892,0.33073 c -0.15535,0.47173 -1.04544,0.54456 -1.61003,0.13172 z m 1.27796,-2.04995 c -0.0899,-0.14553 -0.36486,-0.25622 -0.61093,-0.24599 l -0.4474,0.0186 0.52916,0.22739 c 0.708,0.30424 0.7172,0.30424 0.52917,0 z m 2.09917,2.0342 c -0.0825,-0.21508 -0.11236,-0.85006 -0.0663,-1.41107 l 0.0838,-1.02001 0.91436,-0.087 0.91436,-0.087 0.34241,0.46827 c 0.34868,0.47684 0.47143,2.00199 0.18425,2.28918 -0.087,0.087 -0.32511,0.0941 -0.52917,0.0158 l -0.37101,-0.14237 v -0.89774 c 0,-1.20902 -0.47605,-1.14821 -0.57934,0.074 -0.0847,1.00263 -0.62844,1.48824 -0.89336,0.79789 z m 4.44927,0.17182 -0.33073,-0.13346 v -1.83003 -1.83003 h 0.39687 c 0.21828,0 0.39688,0.22538 0.39688,0.50085 0,0.27548 0.20836,0.58164 0.46302,0.68036 l 0.46302,0.1795 -0.46302,0.341 c -0.56766,0.41806 -0.60217,1.09869 -0.0661,1.30438 0.21828,0.0838 0.39688,0.33463 0.39688,0.55748 0,0.39376 -0.58537,0.50086 -1.25677,0.22995 z m 0.11459,-1.72647 -0.13896,-0.34726 -0.0209,0.50712 c -0.0115,0.27891 0.051,0.43518 0.13896,0.34726 0.0879,-0.0879 0.0973,-0.31612 0.0209,-0.50712 z m 9.76003,1.48592 c -0.52033,-0.52033 -0.54043,-1.79722 -0.0349,-2.21678 0.20948,-0.17385 0.71549,-0.27773 1.12447,-0.23083 l 0.74361,0.0853 0.0832,1.01065 c 0.1307,1.58737 -0.93152,2.33659 -1.91641,1.3517 z m 1.0659,-1.33047 -0.1761,-0.45891 -0.26459,0.26459 c -0.14552,0.14552 -0.18533,0.47109 -0.0885,0.72348 l 0.1761,0.4589 0.26458,-0.26458 c 0.14552,-0.14552 0.18534,-0.47109 0.0885,-0.72348 z m 0.54564,-0.17198 c -0.0734,-0.1819 -0.13345,-0.0331 -0.13345,0.33073 0,0.3638 0.0601,0.51263 0.13345,0.33072 0.0734,-0.1819 0.0734,-0.47955 0,-0.66145 z m 2.25894,1.60073 c -0.17975,-0.17975 -0.3175,-1.0407 -0.3175,-1.98438 v -1.66687 h 0.39687 c 0.21829,0 0.39688,0.17267 0.39688,0.38372 0,0.21105 0.20836,0.50862 0.46302,0.66127 l 0.46302,0.27753 -0.48702,0.37764 -0.48701,0.37764 0.17411,0.5486 c 0.0958,0.30173 0.28516,0.5486 0.42088,0.5486 0.13571,0 0.24675,0.17859 0.24675,0.39687 0,0.47477 -0.82316,0.52621 -1.27,0.0794 z m 0.12782,-1.5842 -0.13896,-0.34726 -0.0209,0.50712 c -0.0115,0.27891 0.0511,0.43518 0.13897,0.34726 0.0879,-0.0879 0.0973,-0.31612 0.0209,-0.50712 z m 12.32082,1.72647 c -0.1819,-0.0734 -0.33072,-0.31065 -0.33072,-0.52722 v -0.39376 l 0.70451,0.0851 c 1.00103,0.12089 1.06584,-0.46823 0.10611,-0.96452 l -0.81062,-0.41919 v -0.60175 c 0,-0.80674 0.47836,-1.23675 1.37583,-1.23675 h 0.74083 v 0.39688 0.39687 h -0.66146 c -0.87968,0 -0.83265,0.29756 0.13397,0.84759 l 0.79208,0.45072 v 0.75314 c 0,1.17625 -0.86839,1.68991 -2.05053,1.21291 z m 1.18512,-3.68879 c -0.0879,-0.0879 -0.31613,-0.0973 -0.50712,-0.0209 l -0.34727,0.13896 0.50712,0.0209 c 0.27892,0.0115 0.43519,-0.0511 0.34727,-0.13896 z m 2.6293,3.68763 c -0.097,-0.097 -0.17639,-0.45804 -0.17639,-0.80228 V 120.097 l 0.59531,-0.23928 0.59531,-0.23929 -0.46302,-0.0168 c -0.25466,-0.009 -0.46302,-0.19536 -0.46302,-0.41365 v -0.39687 h 0.76544 0.76544 l 0.1606,0.41851 c 0.0883,0.23019 0.1606,0.81161 0.1606,1.29206 v 0.87355 l -0.59531,0.15953 c -0.77868,0.20868 -1.12917,0.20617 -1.34496,-0.01 z m 0.45373,-1.02798 c 0.0904,-0.23546 0.046,-0.34166 -0.10399,-0.24897 -0.14385,0.0889 -0.26155,0.27369 -0.26155,0.41062 0,0.38058 0.18964,0.29672 0.36554,-0.16165 z m 0.62113,-1.33674 c -0.0879,-0.0879 -0.31612,-0.0973 -0.50711,-0.0209 l -0.34727,0.13896 0.50712,0.0209 c 0.27891,0.0115 0.43518,-0.0511 0.34726,-0.13897 z m 5.38975,2.17607 c -0.17883,-0.21548 -0.2877,-0.84658 -0.24193,-1.40244 l 0.0832,-1.01065 0.81628,-0.0797 0.81629,-0.0797 0.33583,0.40465 0.33583,0.40465 -0.23455,0.99792 -0.23456,0.99792 -0.67562,0.0795 c -0.3716,0.0437 -0.82195,-0.0968 -1.00079,-0.31227 z m 1.42879,-2.01621 c -0.0899,-0.14553 -0.36486,-0.25622 -0.61093,-0.24599 l -0.44741,0.0186 0.52917,0.22739 c 0.708,0.30424 0.7172,0.30424 0.52917,0 z m -72.36354,0.13229 v -1.98438 h 0.39687 0.39688 v 0.97896 0.97896 l 0.3175,-0.3175 c 0.17462,-0.17463 0.48716,-0.3175 0.69453,-0.3175 h 0.37703 l -0.1567,0.78349 c -0.0862,0.43092 -0.0415,0.85467 0.0992,0.94166 0.36029,0.22267 0.31936,0.92068 -0.054,0.92068 -0.17044,0 -0.52763,-0.19704 -0.79375,-0.43788 l -0.48385,-0.43788 v 0.43788 c 0,0.24084 -0.1786,0.43788 -0.39688,0.43788 h -0.39687 z m 0.45171,-0.98911 c -0.0633,-0.32911 -0.11747,-0.12214 -0.12041,0.45994 -0.003,0.58208 0.0489,0.85136 0.11507,0.5984 0.0662,-0.25297 0.0686,-0.72922 0.005,-1.05834 z m 9.60605,2.64275 c 0.002,-0.1819 0.21734,-1.04482 0.47858,-1.9176 l 0.47499,-1.58687 0.43177,-0.0831 0.43177,-0.0832 0.54485,1.76404 c 0.64909,2.10151 0.65865,2.23747 0.15729,2.23747 -0.46509,0 -0.92742,-0.79112 -0.95623,-1.63625 l -0.0209,-0.61271 -0.39804,1.12448 c -0.36449,1.0297 -1.1526,1.57648 -1.1441,0.79375 z m 11.1089,-1.65364 v -1.98438 h 0.39688 0.39687 v 1.98438 1.98437 h -0.39687 -0.39688 z m 0.45634,-0.72287 c -0.0589,-0.47555 -0.10828,-0.15026 -0.10977,0.72287 -0.002,0.87312 0.0467,1.26221 0.10707,0.86463 0.0604,-0.39757 0.0616,-1.11195 0.003,-1.5875 z m 2.1895,1.38433 v -1.32292 h 0.39687 0.39688 v 1.32292 1.32291 h -0.39688 -0.39687 z m 0.44697,-0.46303 c -0.0665,-0.25466 -0.12101,-0.0463 -0.12101,0.46303 0,0.50932 0.0545,0.71768 0.12101,0.46302 0.0665,-0.25466 0.0665,-0.67138 0,-0.92605 z m 15.42803,-0.19843 v -1.98438 h 0.39055 c 0.21481,0 0.62626,0.44649 0.91435,0.99219 l 0.52379,0.99219 0.0117,-0.99219 0.0117,-0.99219 h 0.39688 0.39687 v 1.98438 1.98437 h -0.40076 c -0.22042,0 -0.6367,-0.38695 -0.92506,-0.85989 l -0.52428,-0.8599 -0.001,0.8599 -10e-4,0.85989 h -0.39688 -0.39687 v -1.98437 z m 0.4513,-0.19844 c -0.0631,-0.32742 -0.11466,-0.0595 -0.11466,0.59531 0,0.65485 0.0516,0.92274 0.11466,0.59531 0.0631,-0.32742 0.0631,-0.8632 0,-1.19062 z m 1.85209,-0.79375 c -0.0631,-0.32742 -0.11466,-0.0595 -0.11466,0.59531 0,0.65485 0.0516,0.92274 0.11466,0.59531 0.0631,-0.32742 0.0631,-0.8632 0,-1.19062 z m 11.55011,1.95845 c 0.22798,-1.4257 0.90579,-2.95064 1.31151,-2.95064 0.18844,0 0.60151,0.80811 0.92249,1.80471 0.70707,2.19538 0.70631,2.16404 0.0521,2.16404 -0.29104,0 -0.52917,-0.11906 -0.52917,-0.26458 0,-0.14552 -0.23812,-0.26458 -0.52916,-0.26458 -0.29105,0 -0.52917,0.11906 -0.52917,0.26458 0,0.14552 -0.19381,0.26458 -0.43069,0.26458 h -0.43069 z m 14.45691,-0.93795 v -1.95607 l 0.37101,-0.14237 c 0.59402,-0.22795 0.68733,0.0591 0.68733,2.11423 v 1.94027 h -0.52917 -0.52917 z m -44.18541,-1.35123 c 0,-0.21828 0.17859,-0.39687 0.39687,-0.39687 0.21828,0 0.39688,0.17859 0.39688,0.39687 0,0.21828 -0.1786,0.39688 -0.39688,0.39688 -0.21828,0 -0.39687,-0.1786 -0.39687,-0.39688 z m -8.27774,-5.32322 c -0.10391,-0.10392 -0.18893,-2.25268 -0.18893,-4.77504 v -4.58611 h 1.17406 1.17405 l 1.51512,1.78593 c 0.83332,0.98227 1.59518,1.78594 1.69302,1.78594 0.0978,0 0.86498,-0.80989 1.70475,-1.79977 l 1.52686,-1.79976 1.09617,0.08 1.09618,0.08 v 4.63021 4.6302 l -0.98392,0.0816 -0.98392,0.0816 -0.0744,-3.21111 -0.0744,-3.21111 -1.43893,1.74043 c -0.79142,0.95723 -1.64028,1.74042 -1.88636,1.74042 -0.24608,0 -0.90804,-0.56555 -1.47102,-1.25677 -0.56298,-0.69123 -1.2024,-1.46971 -1.42093,-1.72996 l -0.39734,-0.47318 -0.13229,3.11902 -0.13229,3.11901 -0.80326,0.0787 c -0.4418,0.0433 -0.88828,-0.006 -0.99219,-0.11024 z m 10.07101,-4.74819 -0.0735,-3.94486 -0.44635,-0.0857 -0.44635,-0.0857 -1.64196,2.00057 c -0.9179,1.11837 -1.84837,2.00056 -2.11003,2.00056 -0.25797,0 -1.22083,-0.8951 -2.14502,-1.99406 l -1.67696,-1.99406 -0.52916,0.0758 c -0.29105,0.0417 -0.4994,0.16513 -0.46302,0.27427 0.0364,0.10914 0.0661,1.92485 0.0661,4.0349 v 3.83646 h 0.27688 0.27688 l -0.0424,-3.06548 -0.0424,-3.06549 0.27694,-0.27694 c 0.45455,-0.45454 1.00459,-0.0622 2.48213,1.77046 l 1.40226,1.73929 1.71979,-1.86135 c 0.94589,-1.02374 1.85304,-1.85993 2.0159,-1.85821 0.40951,0.004 0.62358,1.53655 0.62702,4.48782 l 0.003,2.50031 0.27192,-0.27191 0.27192,-0.27192 -0.0735,-3.94487 z m 4.47267,4.7255 c -0.0735,-0.119 -0.75229,-1.80367 -1.50832,-3.74372 l -1.3746,-3.52735 0.26063,-0.26063 c 0.14335,-0.14335 0.60228,-0.22156 1.01984,-0.1738 l 0.75921,0.0868 0.77912,1.91823 c 0.42851,1.05502 0.84678,1.91823 0.92948,1.91823 0.0827,0 0.56581,-0.86321 1.07359,-1.91823 l 0.92323,-1.91823 h 0.92604 0.92605 l 1.03269,2.0962 1.0327,2.0962 0.68709,-1.83327 c 0.37791,-1.0083 0.78342,-1.98136 0.90115,-2.16235 0.2481,-0.38142 1.66718,-0.44543 1.88979,-0.0853 0.0829,0.13411 -0.47501,1.92549 -1.23974,3.98087 l -1.39043,3.73703 -0.8816,-0.0783 -0.88159,-0.0783 -0.96939,-2.18281 c -0.53316,-1.20054 -1.03474,-2.18281 -1.11462,-2.18281 -0.0799,0 -0.56039,0.98227 -1.06781,2.18281 l -0.92258,2.18281 -0.8281,0.0811 c -0.45546,0.0446 -0.88828,-0.0163 -0.96183,-0.1353 z m 1.78735,-1.93947 c 0.32391,-0.79523 0.80112,-1.89235 1.06046,-2.43806 l 0.47154,-0.99218 h 0.45253 0.45253 l 1.17097,2.44739 c 0.64403,1.34607 1.26949,2.4474 1.3899,2.4474 0.19374,0 2.54425,-5.78101 2.55496,-6.28386 0.002,-0.10914 -0.099,-0.19843 -0.22523,-0.19843 -0.1262,0 -0.61142,1.01203 -1.07827,2.24895 l -0.84881,2.24896 h -0.36132 c -0.44467,0 -0.57067,-0.1935 -1.63668,-2.51354 l -0.85099,-1.85208 h -0.58228 -0.58227 l -0.7801,1.85208 c -1.36833,3.24867 -1.65749,3.27556 -2.86426,0.26643 -0.49565,-1.2359 -1.05704,-2.24794 -1.24753,-2.24895 -0.19049,-0.001 -0.29409,0.0874 -0.23022,0.19658 0.11709,0.2001 2.06479,5.07469 2.38743,5.97513 0.27726,0.77379 0.71438,0.39889 1.34764,-1.15582 z m 9.5565,1.53797 -0.41188,-0.58804 v -1.79321 -1.79321 l 2.05052,-0.003 c 2.6537,-0.004 4.0349,-0.23809 4.0349,-0.6845 v -0.35359 l -2.97656,-0.0748 -2.97656,-0.0748 -0.0834,-1.01355 -0.0834,-1.01356 3.42991,0.0875 3.4299,0.0875 0.55609,0.50403 0.55609,0.50403 v 3.39857 3.39858 h -3.55687 -3.55687 l -0.41188,-0.58804 z m 6.80196,-2.52082 0.14218,-2.57969 -0.30763,-0.66145 -0.30763,-0.66146 -3.10579,-0.0746 -3.1058,-0.0745 v 0.26432 0.26431 l 2.97656,0.0748 2.97656,0.0748 0.0814,1.12448 0.0814,1.12448 -1.0074,0.0283 c -0.55407,0.0156 -1.87031,0.005 -2.92498,-0.0233 l -1.91759,-0.0517 -0.16249,0.42345 c -0.0894,0.23289 -0.0813,0.96468 0.0179,1.62619 l 0.18036,1.20275 0.57679,0.23244 c 0.31724,0.12784 1.72143,0.23998 3.12043,0.24921 l 2.54364,0.0168 0.14219,-2.57969 z m -5.7579,1.78594 c -0.0929,-0.15239 -0.2026,-1.55585 -0.16106,-2.0601 l 0.028,-0.34031 2.57969,0.0757 2.57968,0.0757 0.0814,1.12448 0.0814,1.12448 -0.74281,0.0135 c -0.40856,0.007 -1.55795,0.0372 -2.55422,0.0662 -0.99628,0.0289 -1.84769,-0.007 -1.89204,-0.0797 z m 4.62948,-1.05833 v -0.52917 h -2.11667 -2.11666 v 0.35278 c 0,0.61223 0.3033,0.70555 2.29305,0.70555 h 1.94028 z m -20.2407,-18.180108 c -1.89177,-1.095488 -5.10646,-2.973951 -7.14375,-4.174357 -2.0373,-1.200407 -5.51987,-3.219794 -7.73907,-4.487527 l -4.03489,-2.30497 v -7.368873 -7.368873 l 0.7276,-0.504537 c 0.40019,-0.277495 3.20051,-1.906217 6.22296,-3.619381 l 5.49534,-3.114841 0.49505,0.129458 c 0.27228,0.0712 3.93109,2.152401 8.13069,4.624887 4.19961,2.472486 7.99968,4.680894 8.44462,4.907571 l 0.80897,0.412144 3.82124,-2.124773 c 2.10168,-1.168625 6.7746,-3.795297 10.38426,-5.837047 l 6.56302,-3.712276 -0.17942,-0.427265 c -0.0987,-0.234995 -0.30978,-0.754259 -0.46911,-1.15392 l -0.28969,-0.726651 0.38838,-0.3659 0.38838,-0.365898 3.83646,-0.312695 c 2.11005,-0.171982 5.14192,-0.417849 6.7375,-0.546373 l 2.90104,-0.23368 0.3401,0.28226 c 0.18706,0.155245 0.3401,0.429152 0.3401,0.608685 0,0.432345 -7.51487,11.008674 -8.02485,11.294078 -0.55901,0.312835 -1.11395,0.03686 -1.46202,-0.72707 -0.16397,-0.359881 -0.47268,-0.721307 -0.68601,-0.803172 -0.22111,-0.08485 -3.89079,1.840196 -8.5351,4.477353 -4.48097,2.544408 -8.74253,4.952021 -9.47014,5.350251 -0.7276,0.39823 -2.41763,1.363324 -3.75561,2.144654 -1.33797,0.781333 -2.63342,1.420604 -2.87878,1.420604 -0.24535,0 -4.20501,-2.211861 -8.79924,-4.915249 -4.59424,-2.703388 -8.53753,-4.92691 -8.76289,-4.94116 -0.47059,-0.02976 -5.10744,2.539074 -5.48867,3.04074 -0.14303,0.188222 -0.2035,1.613217 -0.13889,3.272752 l 0.11445,2.939376 7.44648,4.241736 c 4.09557,2.332958 7.69597,4.368093 8.00089,4.522523 l 0.55441,0.280784 3.81122,-2.185146 c 2.09617,-1.201831 5.62692,-3.22988 7.84611,-4.506778 l 4.0349,-2.321631 v -0.986319 c 0,-0.542478 0.14882,-1.182735 0.33073,-1.422797 0.53057,-0.700223 5.52536,-3.401647 6.12976,-3.315277 l 0.55096,0.07874 0.0719,4.925364 0.0719,4.925364 -3.90831,2.234718 c -2.14957,1.229098 -7.19856,4.162137 -11.21998,6.517868 l -7.31167,4.283143 -0.62583,-0.02439 c -0.34421,-0.01344 -2.17364,-0.920732 -4.06541,-2.016221 z m 13.09687,-3.710932 c 4.29286,-2.478439 9.05536,-5.221091 10.58333,-6.09478 l 2.77813,-1.588529 0.0724,-4.527364 c 0.0398,-2.49005 -0.0197,-4.524746 -0.13229,-4.521547 -0.11258,0.0032 -1.39531,0.687808 -2.85052,1.521354 l -2.64583,1.515539 -0.0797,1.091118 -0.0797,1.09112 -0.58173,0.521512 c -0.47254,0.423627 -6.69584,4.117023 -11.95881,7.097303 -0.58208,0.329617 -1.59412,0.90693 -2.24896,1.282916 -1.47831,0.848797 -2.01078,0.858261 -3.19036,0.05671 -0.51257,-0.3483 -1.64153,-0.982604 -2.50881,-1.409565 -4.11769,-2.027142 -12.21836,-6.849258 -12.55138,-7.471508 -0.14865,-0.277767 -0.27028,-1.863624 -0.27028,-3.524125 v -3.019095 l 0.46302,-0.398565 c 0.77932,-0.670838 5.32093,-3.123033 5.78404,-3.123033 0.49497,0 1.71749,0.666856 7.51127,4.097237 5.34018,3.161805 8.99453,5.293293 9.66691,5.638461 l 0.53879,0.276585 2.9774,-1.732487 c 1.63757,-0.952868 2.94293,-1.762125 2.9008,-1.798346 -0.4705,-0.404479 -5.9023,-3.571161 -6.12625,-3.571534 -0.27273,-5.29e-4 -2.27291,-1.156888 -13.39723,-7.745817 -1.96453,-1.16359 -3.75047,-2.108107 -3.96875,-2.098926 -0.40784,0.01714 -6.83648,3.609464 -10.25261,5.729131 l -1.91822,1.190241 v 6.713596 6.713593 l 0.46302,0.413581 c 0.25466,0.227467 2.18942,1.390665 4.29948,2.584886 2.11005,1.194218 5.08661,2.921111 6.61458,3.837538 1.52797,0.916426 4.68312,2.739339 7.01146,4.050913 l 4.23333,2.384685 0.52917,-0.338273 c 0.29104,-0.186052 4.04151,-2.366089 8.33437,-4.844529 z m 10.40195,-18.417272 c 5.1139,-2.874631 6.51609,-3.653864 10.13985,-5.634958 0.89326,-0.488339 1.932,-0.887889 2.30831,-0.887889 h 0.68422 l 0.41919,0.810626 c 0.23055,0.445844 0.56103,0.763883 0.7344,0.706755 0.4465,-0.147133 7.62795,-10.270818 7.51857,-10.598933 l -0.0902,-0.270775 -1.83677,0.0591 c -1.01022,0.03251 -2.55114,0.163473 -3.42426,0.291031 -0.87313,0.127559 -2.90936,0.312098 -4.52496,0.410086 -1.6156,0.09799 -3.08668,0.270386 -3.26905,0.383104 l -0.3316,0.204935 0.44519,0.679445 c 0.24485,0.373695 0.40624,0.949616 0.35864,1.279826 l -0.0866,0.60038 -4.36562,2.601245 c -2.40109,1.430684 -4.72428,2.764515 -5.16264,2.964067 -0.43835,0.199551 -2.01732,1.087421 -3.50882,1.973045 -1.4915,0.885624 -2.7509,1.610225 -2.79867,1.610225 -0.0478,0 -1.10753,0.572159 -2.35501,1.271463 l -2.26815,1.271463 2.15967,1.285208 c 1.18781,0.706867 2.39779,1.438151 2.68883,1.625077 0.29104,0.186928 0.68567,0.346112 0.87695,0.353745 0.19129,0.0076 2.75113,-1.337091 5.68854,-2.988276 z m -42.2705,-8.176492 c -0.0561,-0.181901 -0.17203,-1.825168 -0.25767,-3.6517 l -0.15572,-3.320971 0.33212,-0.409582 c 0.18266,-0.225269 3.66586,-2.319372 7.74045,-4.653562 4.07458,-2.33419 9.10663,-5.269113 11.18233,-6.522052 2.0757,-1.252939 3.8957,-2.27807 4.04444,-2.27807 0.14875,0 2.02232,1.049392 4.1635,2.331982 2.14118,1.28259 6.4529,3.802149 9.5816,5.59902 3.1287,1.796871 6.47545,3.727653 7.43723,4.290625 l 1.74869,1.023589 0.17249,1.855938 0.17249,1.855938 -0.26425,0.493752 c -0.31883,0.595742 -5.67385,3.715822 -6.3775,3.715822 h -0.49782 l -0.13434,-0.595313 c -0.0739,-0.327422 -0.16545,-1.174265 -0.20348,-1.881878 l -0.0691,-1.286565 -5.02708,-2.906898 c -2.76489,-1.598795 -6.22591,-3.609448 -7.69113,-4.468122 -1.46523,-0.858673 -2.79865,-1.561224 -2.96316,-1.561224 -0.27009,0 -8.82496,4.905978 -18.39428,10.548593 -3.65952,2.157868 -4.35042,2.434953 -4.53977,1.820678 z m 43.71963,-2.50761 1.66463,-0.92646 -0.0771,-1.879081 -0.0771,-1.879079 -7.14375,-4.16862 c -3.92906,-2.292741 -7.24443,-4.17195 -7.36749,-4.17602 -0.12306,-0.0041 -0.59931,-0.275288 -1.05833,-0.602707 -0.45903,-0.327418 -2.19136,-1.401767 -3.84963,-2.387443 l -3.01503,-1.792136 -0.42455,0.345312 c -0.23351,0.189922 -0.96034,0.626611 -1.61518,0.97042 -0.65484,0.343809 -1.54781,0.88601 -1.98437,1.204891 -0.43657,0.318882 -1.92485,1.229703 -3.3073,2.024047 -1.38244,0.794344 -5.34127,3.096769 -8.79739,5.116499 l -6.28385,3.672235 v 3.261366 c 0,1.79375 0.0893,3.261278 0.19843,3.261172 0.10914,-1.06e-4 1.21047,-0.614963 2.4474,-1.366351 1.23692,-0.751387 2.72521,-1.61481 3.30729,-1.918713 0.58208,-0.303906 2.48708,-1.39527 4.23333,-2.425256 7.26718,-4.286374 11.73182,-6.724903 12.31244,-6.724903 0.33968,0 2.11365,0.851966 3.94217,1.893259 3.92791,2.236852 12.27899,7.109183 12.41616,7.244049 0.11535,0.113408 0.26095,1.509625 0.28422,2.725415 l 0.0169,0.882517 1.25677,-0.713978 c 0.69122,-0.392689 2.00585,-1.130885 2.92139,-1.640435 z"
         id="path3424"
         clip-path="url(#clipPath11126)"
         transform="translate(-113.68165,-11.123449)" /><g
         id="g11026"><path
           style="fill:#000000;fill-opacity:1;stroke:#000000;stroke-width:5.84255;stroke-dasharray:none;stroke-opacity:1"
           d="m 331.16709,177.3505 v -9.18929 l 22.29581,-12.96443 c 12.26269,-7.13044 30.19134,-17.69452 39.84144,-23.47573 9.6501,-5.78121 18.34093,-10.81647 19.31295,-11.18948 0.99981,-0.38366 6.54845,2.2944 12.77667,6.16669 6.05514,3.76468 14.02629,8.50231 17.71365,10.52806 3.68737,2.02576 16.91601,9.56929 29.39698,16.7634 l 22.69267,13.08021 0.0335,5.54593 0.0335,5.54593 -7.62514,4.26423 c -4.19392,2.34532 -7.90886,4.26422 -8.25549,4.26422 -0.34664,0 -0.79479,-2.23287 -0.99589,-4.96195 -0.3455,-4.68837 -0.7784,-5.21391 -7.85176,-9.53195 -24.61034,-15.02376 -51.80892,-29.78373 -55.81157,-30.28751 -4.84876,-0.61028 -11.42745,2.79784 -61.85614,32.04491 l -21.70125,12.58605 z"
           id="path3648"
           transform="scale(0.26458333)" /><path
           style="fill:#000000;fill-opacity:1;stroke:#000000;stroke-width:5.84255;stroke-dasharray:none;stroke-opacity:1"
           d="m 457.80729,227.58615 c -3.92407,-2.35629 -7.30984,-4.44752 -7.52394,-4.6472 -0.39248,-0.36603 6.40972,-4.36723 27.14425,-15.96682 6.2131,-3.47582 19.23249,-10.93269 28.93198,-16.57083 l 17.63543,-10.25116 -0.40191,-5.05372 c -0.34946,-4.39423 -0.0905,-5.05694 1.98488,-5.07842 1.31273,-0.0136 9.87818,-0.80039 19.03433,-1.74846 9.15614,-0.94807 17.37795,-1.73961 18.27068,-1.75896 1.98315,-0.043 1.10342,1.40654 -12.07502,19.89645 -8.72778,12.24546 -9.71466,13.2377 -11.53112,11.59382 -1.09255,-0.98875 -3.55346,-1.79773 -5.46868,-1.79773 -3.35496,0 -7.36433,2.04648 -50.85993,25.96009 -9.71686,5.34226 -17.74335,9.71183 -17.83665,9.71015 -0.0933,-0.002 -3.38024,-1.93093 -7.3043,-4.28721 z"
           id="path3650"
           transform="scale(0.26458333)" /><path
           style="fill:#000000;fill-opacity:1;stroke:#000000;stroke-width:5.84255;stroke-dasharray:none;stroke-opacity:1"
           d="m 384.62708,292.71991 c -15.39671,-8.93853 -33.72387,-19.60479 -40.72701,-23.70281 l -12.73298,-7.45093 0.0228,-24.06048 0.0228,-24.06047 8.00371,-4.72028 c 18.16159,-10.71099 34.23783,-19.64557 35.35324,-19.64801 0.65401,-0.001 12.15865,6.4659 25.56586,14.37186 13.40721,7.90596 30.79794,17.87905 38.64607,22.16242 20.53725,11.20889 19.5763,10.27586 14.1,13.6903 -2.52292,1.57303 -6.25628,3.83057 -8.29637,5.01675 l -3.70925,2.15669 -28.39671,-16.64451 c -33.50102,-19.63636 -35.21321,-20.54711 -38.62811,-20.54711 -2.78068,0 -15.71105,6.71748 -22.17186,11.51854 l -3.8646,2.87181 v 12.75511 c 0,9.49077 0.4628,13.41585 1.80836,15.33691 3.00769,4.29408 56.82758,35.40073 63.59268,36.7551 2.24609,0.44966 8.64091,-2.654 26.16041,-12.6967 12.75321,-7.31051 26.93334,-15.77483 31.51142,-18.8096 7.3947,-4.9019 8.36302,-5.9823 8.67542,-9.67965 0.31686,-3.75011 1.11101,-4.59601 8.02649,-8.54966 l 7.67484,-4.38776 v 13.97896 13.97896 l -5.05372,2.82704 c -2.77954,1.55487 -21.06823,12.08785 -40.64154,23.40661 -19.5733,11.31875 -35.89383,20.53529 -36.26785,20.48117 -0.37401,-0.0541 -13.27734,-7.41174 -28.67406,-16.35026 z"
           id="path3652"
           transform="scale(0.26458333)" /></g></g></g></svg>
