<svg width="50" height="50" viewBox="0 0 50 50" fill="none" xmlns="http://www.w3.org/2000/svg">
<path opacity="0.2" d="M45.3125 12.5957V37.4004C45.3125 37.8402 45.1378 38.2619 44.8268 38.5729C44.5159 38.8839 44.0941 39.0586 43.6543 39.0586H6.34961C6.13186 39.0591 5.91613 39.0167 5.71475 38.9339C5.51337 38.851 5.33028 38.7293 5.17594 38.5757C5.0216 38.4221 4.89903 38.2396 4.81522 38.0386C4.73142 37.8376 4.68802 37.6221 4.6875 37.4043V12.5996C4.68699 12.3815 4.7295 12.1655 4.81261 11.9638C4.89571 11.7622 5.01777 11.579 5.1718 11.4246C5.32583 11.2702 5.5088 11.1477 5.71024 11.0641C5.91167 10.9805 6.12762 10.9375 6.34571 10.9375H43.6504C43.8685 10.937 44.0845 10.9795 44.2862 11.0626C44.4878 11.1457 44.6711 11.2678 44.8254 11.4218C44.9798 11.5758 45.1023 11.7588 45.1859 11.9602C45.2695 12.1617 45.3125 12.3776 45.3125 12.5957Z" fill="black"/>
<path d="M43.6543 9.375H6.34961C5.49507 9.375 4.67547 9.7142 4.07085 10.3181C3.46623 10.922 3.12604 11.7412 3.125 12.5957V37.4004C3.125 38.2549 3.4642 39.0745 4.06808 39.6792C4.67197 40.2838 5.49116 40.624 6.3457 40.625H43.6504C44.5049 40.625 45.3245 40.2858 45.9292 39.6819C46.5338 39.078 46.874 38.2588 46.875 37.4043V12.5996C46.875 11.7451 46.5358 10.9255 45.9319 10.3208C45.328 9.71623 44.5088 9.37604 43.6543 9.375ZM43.75 37.4043C43.75 37.4169 43.7475 37.4293 43.7427 37.4409C43.7379 37.4525 43.7309 37.4631 43.722 37.472C43.7131 37.4809 43.7025 37.4879 43.6909 37.4927C43.6793 37.4975 43.6669 37.5 43.6543 37.5H6.34961C6.33704 37.5 6.3246 37.4975 6.31299 37.4927C6.30137 37.4879 6.29082 37.4809 6.28194 37.472C6.27305 37.4631 6.266 37.4525 6.26119 37.4409C6.25638 37.4293 6.25391 37.4169 6.25391 37.4043V12.5996C6.25391 12.5742 6.26399 12.5499 6.28194 12.5319C6.29988 12.514 6.32423 12.5039 6.34961 12.5039H43.6543C43.6797 12.5039 43.704 12.514 43.722 12.5319C43.7399 12.5499 43.75 12.5742 43.75 12.5996V37.4043ZM40.625 25C40.625 25.4144 40.4604 25.8118 40.1674 26.1049C39.8743 26.3979 39.4769 26.5625 39.0625 26.5625H10.9375C10.5231 26.5625 10.1257 26.3979 9.83265 26.1049C9.53962 25.8118 9.375 25.4144 9.375 25C9.375 24.5856 9.53962 24.1882 9.83265 23.8951C10.1257 23.6021 10.5231 23.4375 10.9375 23.4375H39.0625C39.4769 23.4375 39.8743 23.6021 40.1674 23.8951C40.4604 24.1882 40.625 24.5856 40.625 25ZM40.625 18.75C40.625 19.1644 40.4604 19.5618 40.1674 19.8549C39.8743 20.1479 39.4769 20.3125 39.0625 20.3125H10.9375C10.5231 20.3125 10.1257 20.1479 9.83265 19.8549C9.53962 19.5618 9.375 19.1644 9.375 18.75C9.375 18.3356 9.53962 17.9382 9.83265 17.6451C10.1257 17.3521 10.5231 17.1875 10.9375 17.1875H39.0625C39.4769 17.1875 39.8743 17.3521 40.1674 17.6451C40.4604 17.9382 40.625 18.3356 40.625 18.75ZM14.0625 31.25C14.0625 31.6644 13.8979 32.0618 13.6049 32.3549C13.3118 32.6479 12.9144 32.8125 12.5 32.8125H10.9375C10.5231 32.8125 10.1257 32.6479 9.83265 32.3549C9.53962 32.0618 9.375 31.6644 9.375 31.25C9.375 30.8356 9.53962 30.4382 9.83265 30.1451C10.1257 29.8521 10.5231 29.6875 10.9375 29.6875H12.5C12.9144 29.6875 13.3118 29.8521 13.6049 30.1451C13.8979 30.4382 14.0625 30.8356 14.0625 31.25ZM32.8125 31.25C32.8125 31.6644 32.6479 32.0618 32.3549 32.3549C32.0618 32.6479 31.6644 32.8125 31.25 32.8125H18.75C18.3356 32.8125 17.9382 32.6479 17.6451 32.3549C17.3521 32.0618 17.1875 31.6644 17.1875 31.25C17.1875 30.8356 17.3521 30.4382 17.6451 30.1451C17.9382 29.8521 18.3356 29.6875 18.75 29.6875H31.25C31.6644 29.6875 32.0618 29.8521 32.3549 30.1451C32.6479 30.4382 32.8125 30.8356 32.8125 31.25ZM40.625 31.25C40.625 31.6644 40.4604 32.0618 40.1674 32.3549C39.8743 32.6479 39.4769 32.8125 39.0625 32.8125H37.5C37.0856 32.8125 36.6882 32.6479 36.3951 32.3549C36.1021 32.0618 35.9375 31.6644 35.9375 31.25C35.9375 30.8356 36.1021 30.4382 36.3951 30.1451C36.6882 29.8521 37.0856 29.6875 37.5 29.6875H39.0625C39.4769 29.6875 39.8743 29.8521 40.1674 30.1451C40.4604 30.4382 40.625 30.8356 40.625 31.25Z" fill="black"/>
</svg>
