<svg width="50" height="50" viewBox="0 0 50 50" fill="none" xmlns="http://www.w3.org/2000/svg">
<path opacity="0.2" d="M45.3125 23.4375C45.3125 25.5095 44.4894 27.4966 43.0243 28.9618C41.5591 30.4269 39.572 31.25 37.5 31.25H29.6875V15.625H37.5C39.572 15.625 41.5591 16.4481 43.0243 17.9132C44.4894 19.3784 45.3125 21.3655 45.3125 23.4375Z" fill="black"/>
<path d="M46.875 23.4376C46.8724 20.952 45.8839 18.5689 44.1263 16.8113C42.3687 15.0537 39.9856 14.0652 37.5 14.0626H29.7266C29.1582 14.0294 19.2539 13.3321 9.82227 5.42194C9.36681 5.03943 8.81165 4.79483 8.22201 4.71689C7.63236 4.63895 7.03272 4.7309 6.49352 4.98194C5.95432 5.23298 5.49796 5.63268 5.17804 6.13409C4.85813 6.6355 4.68795 7.21779 4.6875 7.81257V39.0626C4.68758 39.6575 4.85749 40.2401 5.17726 40.7418C5.49703 41.2435 5.95336 41.6435 6.49263 41.8947C7.03191 42.146 7.6317 42.2381 8.22152 42.1603C8.81135 42.0824 9.36668 41.8378 9.82227 41.4551C17.1992 35.2676 24.8613 33.4942 28.125 32.9981V39.1934C28.1243 39.7084 28.251 40.2155 28.4936 40.6697C28.7362 41.1239 29.0873 41.5111 29.5156 41.7969L31.6641 43.2286C32.0793 43.5057 32.555 43.6794 33.0511 43.735C33.5473 43.7905 34.0495 43.7264 34.5158 43.5479C34.9821 43.3695 35.3989 43.0819 35.7312 42.7093C36.0635 42.3367 36.3017 41.8899 36.4258 41.4063L38.7246 32.7423C40.9799 32.4422 43.0496 31.3333 44.5487 29.6219C46.0479 27.9104 46.8745 25.7128 46.875 23.4376ZM7.8125 39.0489V7.81257C16.1738 14.8262 24.7324 16.6016 28.125 17.0391V29.8282C24.7363 30.2735 16.1797 32.045 7.8125 39.0489ZM33.3984 40.6114V40.6329L31.25 39.2012V32.8126H35.4688L33.3984 40.6114ZM37.5 29.6876H31.25V17.1876H37.5C39.1576 17.1876 40.7473 17.846 41.9194 19.0181C43.0915 20.1902 43.75 21.78 43.75 23.4376C43.75 25.0952 43.0915 26.6849 41.9194 27.857C40.7473 29.0291 39.1576 29.6876 37.5 29.6876Z" fill="black"/>
</svg>
